<svg width="646" height="185" viewBox="0 0 646 185" fill="none" xmlns="http://www.w3.org/2000/svg">
<path d="M614.074 96.5703H621.464C623.494 96.5703 625.144 98.2202 625.144 100.25V100.27C625.144 102.3 626.794 103.95 628.824 103.95H645.214V139.86H609.304V123.48C609.304 121.45 607.654 119.8 605.624 119.8H605.604C603.574 119.8 601.924 118.15 601.924 116.12V108.72C601.924 106.69 600.274 105.04 598.244 105.04H586.634C584.604 105.04 582.954 106.69 582.954 108.72V116.12C582.954 118.15 581.304 119.8 579.274 119.8H579.264C577.234 119.8 575.584 121.45 575.584 123.48V139.86H539.674V103.95H556.064C558.094 103.95 559.744 102.3 559.744 100.27V100.25C559.744 98.2202 561.394 96.5703 563.424 96.5703H570.814C572.844 96.5703 574.494 94.9203 574.494 92.8903V81.2803C574.494 79.2503 572.844 77.6003 570.814 77.6003H563.424C561.394 77.6003 559.744 75.9503 559.744 73.9203C559.744 71.8903 558.094 70.2404 556.064 70.2404H539.674V34.3203H575.584V50.7103C575.584 52.7403 577.234 54.3903 579.264 54.3903H579.274C581.304 54.3903 582.954 56.0403 582.954 58.0703V65.4603C582.954 67.4903 584.604 69.1403 586.634 69.1403H598.244C600.274 69.1403 601.924 67.4903 601.924 65.4603V58.0703C601.924 56.0403 603.574 54.3903 605.604 54.3903H605.624C607.654 54.3903 609.304 52.7403 609.304 50.7103V34.3203H645.214V70.2404H628.824C626.794 70.2404 625.144 71.8903 625.144 73.9203C625.144 75.9503 623.494 77.6003 621.464 77.6003H614.074C612.044 77.6003 610.394 79.2503 610.394 81.2803V92.8903C610.394 94.9203 612.044 96.5703 614.074 96.5703Z" fill="black" style="fill:black;fill:black;fill-opacity:1;"/>
<path d="M300.555 120.37V96.2103L320.055 76.7103H373.675V63.3604L367.105 58.0603H309.055V34.3203H378.555L401.235 57.2103V139.87H376.015V124.82L360.335 139.87H320.065L300.565 120.37H300.555ZM358.415 118.25L373.675 103.63V96.6302H333.835L328.115 102.35V112.95L333.415 118.25H358.425H358.415Z" fill="black" style="fill:black;fill:black;fill-opacity:1;"/>
<path d="M223.994 118.25V57.8501H204.924V34.3301H224.424V0H251.974V34.3301H284.184V58.0701H251.974V109.15L259.174 116.14H284.184V139.88H245.824L223.994 118.26V118.25Z" fill="black" style="fill:black;fill:black;fill-opacity:1;"/>
<path d="M417.604 34.3201H500.053L521.884 56.3601V117.82L500.053 139.86H445.583V184.79H417.604V34.3101V34.3201ZM486.484 116.13L493.904 108.71V65.4701L486.484 58.05H445.583V116.12H486.484V116.13Z" fill="black" style="fill:black;fill:black;fill-opacity:1;"/>
<path d="M174.924 139.943H134.56V113.043C134.56 105.624 140.576 99.5789 148.024 99.5789H174.924V139.943Z" fill="black" style="fill:black;fill:black;fill-opacity:1;"/>
<path d="M174.922 0V53.8288H142.923C138.311 53.8288 134.558 57.5818 134.558 62.1941V86.1148C134.558 93.5345 128.542 99.5792 121.094 99.5792H80.7288C73.3091 99.5792 67.2646 105.595 67.2646 113.044V139.944H0V99.5792H53.829C61.2488 99.5792 67.2933 93.5632 67.2933 86.1148V62.1941C67.2933 57.5818 63.5403 53.8288 58.928 53.8288H0V0H174.922Z" fill="black" style="fill:black;fill:black;fill-opacity:1;"/>
</svg>
